# Blender 4.3.2
# www.blender.org
mtllib Bench_broken.mtl
o Cube
v 10.102010 0.461194 0.311982
v 9.997036 -0.069242 0.311982
v 10.102010 0.461194 1.169996
v 9.997036 -0.069242 1.169996
v -11.706242 4.777252 0.311982
v -11.811220 4.246814 0.311982
v -11.706242 4.777252 1.169996
v -11.811220 4.246814 1.169996
v 10.102010 0.461194 -0.824254
v 9.997036 -0.069242 -0.824254
v 10.102010 0.461194 0.033761
v 9.997036 -0.069242 0.033761
v -11.706242 4.777252 -0.824254
v -11.811220 4.246814 -0.824254
v -11.706242 4.777252 0.033761
v -11.811220 4.246814 0.033761
v -11.811220 4.246814 3.419695
v -11.706242 4.777252 3.419695
v -11.811220 4.246814 2.561681
v -11.706242 4.777252 2.561681
v 9.997036 -0.069242 3.419695
v 10.102010 0.461194 3.419695
v 9.997036 -0.069242 2.561681
v 10.102010 0.461194 2.561681
v 10.102010 0.461194 1.425445
v 9.997036 -0.069242 1.425445
v 10.102010 0.461194 2.283459
v 9.997036 -0.069242 2.283459
v -11.706242 4.777252 1.425445
v -11.811220 4.246814 1.425445
v -11.706242 4.777252 2.283459
v -11.811220 4.246814 2.283459
v 9.521136 0.017344 -0.550389
v 4.935635 -0.660544 -1.263829
v 4.875990 -0.645921 -0.894370
v 9.466917 0.409679 -0.574671
v 4.881412 -0.268209 -1.288111
v 9.407271 0.424302 -0.205214
v 4.821767 -0.253585 -0.918653
v 9.121746 -0.041700 -0.612529
v 9.507868 0.439175 -0.189562
v 9.067524 0.350636 -0.636812
v 8.762880 -0.094751 -0.668363
v 9.203230 -0.006212 -0.221113
v 8.708660 0.297584 -0.692645
v 9.149009 0.386122 -0.245396
v 8.987791 0.148111 2.753352
v 4.402287 -0.529777 2.039913
v 8.928146 0.162735 3.122810
v 4.342644 -0.515153 2.409371
v 8.933567 0.540446 2.729070
v 4.348066 -0.137441 2.015630
v 8.873924 0.555070 3.098527
v 4.288421 -0.122818 2.385088
v 9.088392 0.162983 2.769004
v 8.474529 0.496026 3.036387
v 8.528752 0.103691 3.060670
v 9.034171 0.555317 2.744721
v 8.729527 0.109931 2.713170
v 8.169891 0.050639 3.004836
v 8.675305 0.502266 2.688888
v 8.115670 0.442974 2.980554
v 9.562106 0.046836 -0.165354
v -10.128170 4.089319 -0.582510
v -10.128170 -0.600604 -0.582510
v -10.128170 4.089319 -0.207983
v -10.128170 -0.600604 -0.207983
v -10.524978 4.089319 -0.582510
v -10.524978 -0.600604 -0.582510
v -10.524978 4.089319 -0.207983
v -10.524978 -0.600604 -0.207983
v -10.128170 3.680831 -0.582510
v -10.524978 4.192210 -0.207983
v -10.524978 3.680831 -0.582510
v -10.128170 3.313796 -0.582510
v -10.128170 3.825175 -0.207983
v -10.524978 3.313796 -0.582510
v -10.524978 3.825175 -0.207983
v -10.128170 4.089319 2.766559
v -10.128170 -0.600604 2.766559
v -10.128170 4.089319 3.141086
v -10.128170 -0.600604 3.141086
v -10.524978 4.089319 2.766559
v -10.524978 -0.600604 2.766559
v -10.524978 4.089319 3.141086
v -10.524978 -0.600604 3.141086
v -10.128170 4.192210 2.766559
v -10.524978 3.680831 3.141086
v -10.128170 3.680831 3.141086
v -10.524978 4.192210 2.766559
v -10.128170 3.825175 2.766559
v -10.128170 3.313796 3.141086
v -10.524978 3.825175 2.766559
v -10.524978 3.313796 3.141086
v -10.128170 4.192210 -0.208059
v 9.521136 0.017344 -0.550389
v 4.935635 -0.660544 -1.263829
v 9.461493 0.031968 -0.180931
v 4.875990 -0.645921 -0.894370
v 9.121746 -0.041700 -0.612529
v 8.762880 -0.094751 -0.668363
v 9.203230 -0.006212 -0.221113
vn 0.1941 0.9810 -0.0000
vn -0.0000 -0.0000 1.0000
vn -0.9810 0.1941 -0.0000
vn -0.1941 -0.9810 -0.0000
vn 0.9810 -0.1941 -0.0000
vn -0.0000 -0.0000 -1.0000
vn -0.9777 -0.1445 -0.1521
vn 0.1593 -0.0390 -0.9865
vn -0.1593 0.0390 0.9865
vn 0.9777 0.1445 0.1521
vn -0.1366 0.9887 -0.0612
vn 0.1366 -0.9887 0.0612
vn -0.0000 -1.0000 -0.0000
vn -0.0000 1.0000 -0.0000
vn -1.0000 -0.0000 -0.0000
vn 1.0000 -0.0000 -0.0000
vt 0.150949 0.000293
vt 0.150950 0.999707
vt 0.112377 0.999707
vt 0.112377 0.000293
vt 0.088069 0.000293
vt 0.088069 0.999707
vt 0.693247 0.765738
vt 0.725445 0.765738
vt 0.725445 0.816829
vt 0.693247 0.816829
vt 0.468871 0.999707
vt 0.468871 0.000293
vt 0.507443 0.000293
vt 0.507443 0.999707
vt 0.627299 0.765738
vt 0.659497 0.765738
vt 0.659497 0.816829
vt 0.627299 0.816829
vt 0.175258 0.999707
vt 0.175258 0.000293
vt 0.063174 0.000293
vt 0.063174 0.999707
vt 0.024602 0.999707
vt 0.024602 0.000293
vt 0.000293 0.000293
vt 0.000293 0.999707
vt 0.659497 0.764962
vt 0.627299 0.764962
vt 0.627299 0.713871
vt 0.659497 0.713871
vt 0.389968 0.000293
vt 0.389968 0.999707
vt 0.351395 0.999707
vt 0.351395 0.000293
vt 0.660273 0.713871
vt 0.692471 0.713871
vt 0.692471 0.764962
vt 0.660273 0.764962
vt 0.087482 0.999707
vt 0.087482 0.000293
vt 0.390554 0.999707
vt 0.390554 0.000293
vt 0.429126 0.000293
vt 0.429126 0.999707
vt 0.175844 0.000293
vt 0.200153 0.000293
vt 0.200153 0.999707
vt 0.175844 0.999707
vt 0.238725 0.000293
vt 0.238725 0.999707
vt 0.725445 0.764962
vt 0.693247 0.764962
vt 0.693247 0.713871
vt 0.725445 0.713871
vt 0.660273 0.765738
vt 0.692471 0.765738
vt 0.692471 0.816829
vt 0.660273 0.816829
vt 0.263034 0.999707
vt 0.263034 0.000293
vt 0.326501 0.000293
vt 0.326501 0.999707
vt 0.287928 0.999707
vt 0.287928 0.000293
vt 0.263620 0.000293
vt 0.263620 0.999707
vt 0.692471 0.868697
vt 0.660273 0.868697
vt 0.660273 0.817606
vt 0.692471 0.817606
vt 0.429713 0.999707
vt 0.429712 0.000293
vt 0.468285 0.000293
vt 0.468285 0.999707
vt 0.627299 0.817606
vt 0.659497 0.817606
vt 0.659497 0.868697
vt 0.627299 0.868697
vt 0.350809 0.999707
vt 0.350809 0.000293
vt 0.716325 0.841234
vt 0.716325 0.817606
vt 0.738627 0.817606
vt 0.738627 0.841234
vt 0.581143 0.968811
vt 0.581143 0.993135
vt 0.557515 0.993135
vt 0.557515 0.968811
vt 0.581143 0.946956
vt 0.557515 0.946956
vt 0.785721 0.713094
vt 0.785721 0.449559
vt 0.809349 0.449559
vt 0.809349 0.713095
vt 0.581143 0.713871
vt 0.557515 0.713871
vt 0.763419 0.263844
vt 0.763419 0.288167
vt 0.739791 0.288167
vt 0.739791 0.263844
vt 0.693248 0.841234
vt 0.693248 0.817606
vt 0.715549 0.817606
vt 0.715549 0.841234
vt 0.831204 0.272439
vt 0.854832 0.272439
vt 0.854832 0.449564
vt 0.831204 0.449559
vt 0.763419 0.241988
vt 0.739791 0.241988
vt 0.763419 0.008904
vt 0.739791 0.008904
vt 0.809349 0.008904
vt 0.809349 0.272439
vt 0.785721 0.272439
vt 0.785721 0.008904
vt 0.876687 0.272439
vt 0.876687 0.449559
vt 0.717490 0.008904
vt 0.717490 0.288167
vt 0.717490 0.272439
vt 0.785721 0.288167
vt 0.603445 0.713871
vt 0.603445 0.977406
vt 0.603445 0.993135
vt 0.726222 0.737499
vt 0.726222 0.713871
vt 0.748523 0.713871
vt 0.748523 0.737499
vt 0.694412 0.263844
vt 0.694412 0.288167
vt 0.670784 0.288167
vt 0.670784 0.263844
vt 0.694412 0.241989
vt 0.670784 0.241988
vt 0.648482 0.008904
vt 0.648482 0.272439
vt 0.624854 0.272439
vt 0.624854 0.008904
vt 0.694412 0.008904
vt 0.670784 0.008904
vt 0.670783 0.458154
vt 0.670783 0.433831
vt 0.694412 0.433831
vt 0.694412 0.458154
vt 0.693248 0.865638
vt 0.693248 0.842010
vt 0.715549 0.842010
vt 0.715549 0.865638
vt 0.602999 0.449559
vt 0.579371 0.449559
vt 0.579371 0.272434
vt 0.602999 0.272439
vt 0.670783 0.480010
vt 0.694412 0.480010
vt 0.670783 0.713094
vt 0.694411 0.713094
vt 0.648482 0.449559
vt 0.624854 0.449559
vt 0.557515 0.449559
vt 0.557515 0.272439
vt 0.716713 0.713094
vt 0.716713 0.433831
vt 0.716713 0.449559
vt 0.648482 0.713094
vt 0.648482 0.433831
vt 0.648482 0.288167
vt 0.716713 0.008904
vt 0.716713 0.272439
vt 0.716713 0.288167
vt 0.624854 0.713094
vt 0.626523 0.713871
vt 0.626523 0.946956
vt 0.626523 0.968811
vt 0.626523 0.993135
vt 0.604221 0.993135
vt 0.604221 0.977406
vt 0.604221 0.713871
s 0
usemtl Material
f 1/1/1 5/2/1 7/3/1 3/4/1
f 4/5/2 3/4/2 7/3/2 8/6/2
f 8/7/3 7/8/3 5/9/3 6/10/3
f 6/11/4 2/12/4 4/13/4 8/14/4
f 2/15/5 1/16/5 3/17/5 4/18/5
f 6/19/6 5/2/6 1/1/6 2/20/6
f 9/21/1 13/22/1 15/23/1 11/24/1
f 12/25/2 11/24/2 15/23/2 16/26/2
f 16/27/3 15/28/3 13/29/3 14/30/3
f 14/31/4 10/32/4 12/33/4 16/34/4
f 10/35/5 9/36/5 11/37/5 12/38/5
f 14/39/6 13/22/6 9/21/6 10/40/6
f 19/41/4 23/42/4 21/43/4 17/44/4
f 21/45/2 22/46/2 18/47/2 17/48/2
f 24/49/1 20/50/1 18/47/1 22/46/1
f 17/51/3 18/52/3 20/53/3 19/54/3
f 23/55/5 24/56/5 22/57/5 21/58/5
f 19/59/6 20/50/6 24/49/6 23/60/6
f 25/61/1 29/62/1 31/63/1 27/64/1
f 28/65/2 27/64/2 31/63/2 32/66/2
f 32/67/3 31/68/3 29/69/3 30/70/3
f 30/71/4 26/72/4 28/73/4 32/74/4
f 26/75/5 25/76/5 27/77/5 28/78/5
f 30/79/6 29/62/6 25/61/6 26/80/6
f 37/81/7 34/82/7 35/83/7 39/84/7
f 42/85/8 36/86/8 33/87/8 40/88/8
f 45/89/8 42/85/8 40/88/8 43/90/8
f 35/91/9 44/92/9 46/93/9 39/94/9
f 37/95/8 45/89/8 43/90/8 34/96/8
f 57/97/9 49/98/9 53/99/9 56/100/9
f 52/101/7 48/102/7 50/103/7 54/104/7
f 58/105/10 55/106/10 63/107/10 41/108/10
f 60/109/9 57/97/9 56/100/9 62/110/9
f 50/111/9 60/109/9 62/110/9 54/112/9
f 52/113/8 61/114/8 59/115/8 48/116/8
f 59/115/7 61/114/7 46/93/7 44/92/7
f 61/114/11 58/105/11 41/108/11 46/93/11
f 55/106/12 59/117/12 44/118/12 63/107/12
f 52/119/11 54/112/11 62/110/11 56/100/11 53/99/11 51/120/11 61/121/11
f 48/116/12 59/115/12 47/122/12 49/98/12 57/97/12 60/109/12 50/111/12
f 37/95/11 39/123/11 46/124/11 38/125/11 36/86/11 42/85/11 45/89/11
f 69/126/13 65/127/13 67/128/13 71/129/13
f 74/130/6 68/131/6 64/132/6 72/133/6
f 77/134/6 74/130/6 72/133/6 75/135/6
f 67/136/2 76/137/2 78/138/2 71/139/2
f 69/140/6 77/134/6 75/135/6 65/141/6
f 89/142/2 81/143/2 85/144/2 88/145/2
f 84/146/13 80/147/13 82/148/13 86/149/13
f 90/150/14 87/151/14 95/152/14 73/153/14
f 92/154/2 89/142/2 88/145/2 94/155/2
f 82/156/2 92/154/2 94/155/2 86/157/2
f 91/158/13 93/159/13 78/138/13 76/137/13
f 93/159/15 90/150/15 73/153/15 78/138/15
f 87/151/16 91/160/16 76/161/16 95/152/16
f 84/162/15 86/157/15 94/155/15 88/145/15 85/144/15 83/163/15 93/164/15
f 80/165/16 91/158/16 79/166/16 81/143/16 89/142/16 92/154/16 82/156/16
f 65/141/16 75/135/16 72/133/16 64/132/16 66/167/16 76/137/16 67/136/16
f 69/140/15 71/168/15 78/169/15 70/170/15 68/131/15 74/130/15 77/134/15
f 80/165/6 84/171/6 93/159/6 91/158/6
f 97/172/12 101/173/12 100/174/12 96/175/12 98/176/12 102/177/12 99/178/12
