# Blender 4.3.2
# www.blender.org
mtllib Pipe.mtl
o Pipe
v 0.195090 2.330256 -0.616918
v 0.195090 2.330257 -13.229500
v 0.555570 2.180941 -13.229500
v 0.555570 2.180941 -0.616918
v 0.831470 1.905042 -13.229500
v 0.831470 1.905041 -0.616918
v 0.980785 1.544562 -13.229500
v 0.980785 1.544561 -0.616918
v 0.980785 1.154381 -13.229500
v 0.980785 1.154381 -0.616918
v 0.831470 0.793901 -0.616918
v 0.831470 0.793901 -13.229500
v 0.555570 0.518002 -13.229500
v 0.555570 0.518001 -0.616918
v 0.195090 0.368686 -13.229500
v 0.195090 0.368686 -0.616918
v -0.195090 0.368686 -13.229500
v -0.195090 0.368686 -0.616918
v -0.555570 0.518002 -13.229500
v -0.555570 0.518001 -0.616918
v -0.831470 0.793901 -0.616918
v -0.831470 0.793901 -13.229500
v -0.980785 1.154381 -13.229500
v -0.980785 1.154381 -0.616918
v -0.987397 1.553693 -13.225975
v -0.987397 1.553692 -0.613394
v -0.980785 1.544562 -13.229500
v -0.980785 1.544561 -0.616918
v -0.831470 1.905041 -0.616918
v -0.831470 1.905042 -13.229500
v -0.555570 2.180941 -0.616918
v -0.555570 2.180941 -13.229500
v -0.195090 2.330257 -13.229500
v -0.195090 2.330256 -0.616918
vn 0.3827 0.9239 -0.0000
vn 0.7071 0.7071 -0.0000
vn 0.9239 0.3827 -0.0000
vn 1.0000 -0.0000 -0.0000
vn 0.9239 -0.3827 -0.0000
vn 0.7071 -0.7071 -0.0000
vn 0.3827 -0.9239 -0.0000
vn -0.0000 -1.0000 -0.0000
vn -0.3827 -0.9239 -0.0000
vn -0.7071 -0.7071 -0.0000
vn -0.9239 -0.3827 -0.0000
vn -0.9999 -0.0166 -0.0000
vn -0.8099 -0.5865 -0.0000
vn -0.9140 0.4056 -0.0000
vn -0.7071 0.7071 -0.0000
vn -0.3827 0.9239 -0.0000
vn -0.0000 1.0000 -0.0000
vt 0.377722 0.000284
vt 0.377722 0.999436
vt 0.346813 0.999436
vt 0.346813 0.000284
vt 0.125898 0.000284
vt 0.125898 0.999437
vt 0.094988 0.999437
vt 0.094988 0.000284
vt 0.251810 0.000284
vt 0.251810 0.999437
vt 0.220900 0.999437
vt 0.220900 0.000284
vt 0.440679 0.000284
vt 0.440679 0.999436
vt 0.409769 0.999436
vt 0.409769 0.000284
vt 0.283288 0.000284
vt 0.283288 0.999437
vt 0.252379 0.999437
vt 0.252379 0.000284
vt 0.157376 0.000284
vt 0.157376 0.999437
vt 0.126466 0.999437
vt 0.126466 0.000284
vt 0.220332 0.000284
vt 0.220332 0.999437
vt 0.189422 0.999437
vt 0.189422 0.000284
vt 0.472157 0.000284
vt 0.472157 0.999436
vt 0.441247 0.999436
vt 0.441247 0.000284
vt 0.314766 0.000284
vt 0.314766 0.999437
vt 0.283857 0.999437
vt 0.283857 0.000284
vt 0.188854 0.000284
vt 0.188854 0.999437
vt 0.157944 0.999437
vt 0.157944 0.000284
vt 0.409201 0.000284
vt 0.409201 0.999436
vt 0.378291 0.999436
vt 0.378291 0.000284
vt 0.031922 0.000284
vt 0.031922 0.999437
vt 0.000284 0.999716
vt 0.000284 0.000563
vt 0.504203 0.000579
vt 0.505148 0.000284
vt 0.505148 0.945038
vt 0.504203 0.945333
vt 0.062941 0.000563
vt 0.062941 0.999716
vt 0.032490 0.999436
vt 0.032490 0.000284
vt 0.346244 0.000284
vt 0.346244 0.999437
vt 0.315335 0.999437
vt 0.315335 0.000284
vt 0.094420 0.000284
vt 0.094420 0.999437
vt 0.063510 0.999437
vt 0.063510 0.000284
vt 0.503635 0.000284
vt 0.503635 0.999436
vt 0.472725 0.999436
vt 0.472725 0.000284
s 0
usemtl Material.001
f 2/1/1 1/2/1 4/3/1 3/4/1
f 3/5/2 4/6/2 6/7/2 5/8/2
f 5/9/3 6/10/3 8/11/3 7/12/3
f 7/13/4 8/14/4 10/15/4 9/16/4
f 9/17/5 10/18/5 11/19/5 12/20/5
f 12/21/6 11/22/6 14/23/6 13/24/6
f 13/25/7 14/26/7 16/27/7 15/28/7
f 15/29/8 16/30/8 18/31/8 17/32/8
f 17/33/9 18/34/9 20/35/9 19/36/9
f 19/37/10 20/38/10 21/39/10 22/40/10
f 22/41/11 21/42/11 24/43/11 23/44/11
f 23/45/12 24/46/12 26/47/12 25/48/12
f 25/49/13 27/50/13 28/51/13 26/52/13
f 25/53/14 26/54/14 29/55/14 30/56/14
f 30/57/15 29/58/15 31/59/15 32/60/15
f 32/61/16 31/62/16 34/63/16 33/64/16
f 33/65/17 34/66/17 1/67/17 2/68/17
